<?xml version="1.0" encoding="UTF-8" standalone="no"?>
<!-- Created with Inkscape (http://www.inkscape.org/) -->

<svg
   xmlns:dc="http://purl.org/dc/elements/1.1/"
   xmlns:cc="http://creativecommons.org/ns#"
   xmlns:rdf="http://www.w3.org/1999/02/22-rdf-syntax-ns#"
   xmlns:svg="http://www.w3.org/2000/svg"
   xmlns="http://www.w3.org/2000/svg"
   xmlns:sodipodi="http://sodipodi.sourceforge.net/DTD/sodipodi-0.dtd"
   xmlns:inkscape="http://www.inkscape.org/namespaces/inkscape"
   width="512"
   height="512"
   viewBox="0 0 135.46666 135.46666"
   version="1.1"
   id="svg8"
   inkscape:version="0.92.4 5da689c313, 2019-01-14"
   sodipodi:docname="logo.svg"
   inkscape:export-filename="/home/nebulon/projects/yellowtent/apps/releasebell/logo.png"
   inkscape:export-xdpi="96"
   inkscape:export-ydpi="96">
  <defs
     id="defs2" />
  <sodipodi:namedview
     id="base"
     pagecolor="#ffffff"
     bordercolor="#666666"
     borderopacity="1.0"
     inkscape:pageopacity="0.0"
     inkscape:pageshadow="2"
     inkscape:zoom="1.979899"
     inkscape:cx="235.7144"
     inkscape:cy="223.32852"
     inkscape:document-units="mm"
     inkscape:current-layer="flowRoot4518"
     showgrid="false"
     units="px"
     inkscape:window-width="3200"
     inkscape:window-height="1746"
     inkscape:window-x="0"
     inkscape:window-y="54"
     inkscape:window-maximized="1" />
  <metadata
     id="metadata5">
    <rdf:RDF>
      <cc:Work
         rdf:about="">
        <dc:format>image/svg+xml</dc:format>
        <dc:type
           rdf:resource="http://purl.org/dc/dcmitype/StillImage" />
        <dc:title></dc:title>
      </cc:Work>
    </rdf:RDF>
  </metadata>
  <g
     inkscape:label="Layer 1"
     inkscape:groupmode="layer"
     id="layer1"
     transform="translate(0,-161.53336)">
    <g
       aria-label=""
       transform="matrix(5.7484127,0,0,5.7484127,-119.09008,-782.03853)"
       style="font-style:normal;font-weight:normal;font-size:25px;line-height:25px;font-family:sans-serif;letter-spacing:0px;word-spacing:0px;fill:#409eff;fill-opacity:1;stroke:none;stroke-width:1px;stroke-linecap:butt;stroke-linejoin:miter;stroke-opacity:1"
       id="flowRoot4518">
      <path
         d="m 33.28125,166.60156 c 2.034505,0.24414 3.7028,1.09049 5.004883,2.53906 1.302083,1.43229 1.977539,3.17383 2.026367,5.22461 v 7.8125 h 2.34375 v 1.5625 H 35.625 c -0.01627,0.87891 -0.325518,1.61133 -0.927734,2.19727 -0.585938,0.60221 -1.31836,0.91146 -2.197266,0.92773 -0.878906,-0.0163 -1.619466,-0.32551 -2.22168,-0.92773 -0.585937,-0.58594 -0.887044,-1.31836 -0.90332,-2.19727 h -7.03125 v -1.5625 h 2.34375 v -7.8125 c 0.04883,-2.05078 0.724282,-3.79232 2.026367,-5.22461 1.302083,-1.44857 2.970378,-2.29492 5.004883,-2.53906 v -1.61133 h 1.5625 z M 38.75,182.17773 v -7.8125 c -0.04883,-1.77409 -0.659178,-3.24707 -1.831055,-4.41894 -1.171875,-1.17187 -2.644856,-1.78223 -4.418945,-1.83106 -1.774089,0.0489 -3.24707,0.65922 -4.418945,1.83106 -4.891435,6.17003 7.051726,3.96995 7.002898,5.74403 L 26.25,182.17773 Z m -4.6875,1.5625 h -3.125 c 0.03255,0.42318 0.195314,0.78125 0.488281,1.07422 0.292969,0.27669 0.651042,0.41504 1.074219,0.41504 0.423177,0 0.78125,-0.13835 1.074219,-0.41504 0.292969,-0.29297 0.455729,-0.65104 0.488281,-1.07422 z"
         style="font-style:normal;font-variant:normal;font-weight:normal;font-stretch:normal;font-family:element-icons;-inkscape-font-specification:element-icons;fill:#409eff;fill-opacity:1"
         id="path820"
         inkscape:connector-curvature="0"
         sodipodi:nodetypes="ccccccccccccccccccccccsccccccccscc" />
    </g>
    <flowRoot
       xml:space="preserve"
       id="flowRoot824"
       style="fill:black;stroke:none;stroke-opacity:1;stroke-width:1px;stroke-linejoin:miter;stroke-linecap:butt;fill-opacity:1;font-family:sans-serif;font-style:normal;font-weight:normal;font-size:25px;line-height:25px;letter-spacing:0px;word-spacing:0px"><flowRegion
         id="flowRegion826"><rect
           id="rect828"
           width="142.85715"
           height="82.85714"
           x="71.428574"
           y="-153.71428" /></flowRegion><flowPara
         id="flowPara830" /></flowRoot>  </g>
</svg>
